<?xml version="1.0" encoding="UTF-8"?>
<!DOCTYPE svg PUBLIC "-//W3C//DTD SVG 1.1//EN" "http://www.w3.org/Graphics/SVG/1.1/DTD/svg11.dtd">
<svg xmlns="http://www.w3.org/2000/svg" version="1.1" width="512px" height="512px" style="shape-rendering:geometricPrecision; text-rendering:geometricPrecision; image-rendering:optimizeQuality; fill-rule:evenodd; clip-rule:evenodd" xmlns:xlink="http://www.w3.org/1999/xlink">
<g><path style="opacity:0.995" fill="#eab14d" d="M 232.5,-0.5 C 236.5,-0.5 240.5,-0.5 244.5,-0.5C 331.332,7.48361 398.499,47.8169 446,120.5C 489.795,195.037 496.128,272.704 465,353.5C 427.358,436.626 363.858,487.959 274.5,507.5C 264.02,508.856 253.687,510.19 243.5,511.5C 239.833,511.5 236.167,511.5 232.5,511.5C 142.856,500.612 75.3562,456.279 30,378.5C 13.3053,347.029 3.1386,313.696 -0.5,278.5C -0.5,263.167 -0.5,247.833 -0.5,232.5C 10.3875,142.857 54.7208,75.3573 132.5,30C 163.971,13.3053 197.304,3.1386 232.5,-0.5 Z"/></g>
<g><path style="opacity:1" fill="#e49542" d="M 244.5,-0.5 C 255.833,-0.5 267.167,-0.5 278.5,-0.5C 368.144,10.3879 435.644,54.7213 481,132.5C 497.695,163.971 507.861,197.304 511.5,232.5C 511.5,247.833 511.5,263.167 511.5,278.5C 500.612,368.144 456.279,435.644 378.5,481C 347.029,497.695 313.696,507.861 278.5,511.5C 266.833,511.5 255.167,511.5 243.5,511.5C 253.687,510.19 264.02,508.856 274.5,507.5C 363.858,487.959 427.358,436.626 465,353.5C 496.128,272.704 489.795,195.037 446,120.5C 398.499,47.8169 331.332,7.48361 244.5,-0.5 Z"/></g>
<g><path style="opacity:1" fill="#daf0f2" d="M 241.5,454.5 C 320.318,443.844 375.818,402.177 408,329.5C 435.707,251.739 422.707,181.739 369,119.5C 333.983,83.4082 291.483,62.4082 241.5,56.5C 315.731,53.2036 374.898,81.2036 419,140.5C 464.208,210.628 467.208,282.628 428,356.5C 388.137,419.95 330.471,452.95 255,455.5C 250.451,455.441 245.951,455.107 241.5,454.5 Z"/></g>
<g><path style="opacity:1" fill="#f3fafe" d="M 241.5,56.5 C 291.483,62.4082 333.983,83.4082 369,119.5C 422.707,181.739 435.707,251.739 408,329.5C 375.818,402.177 320.318,443.844 241.5,454.5C 173.682,448.102 121.515,416.435 85,359.5C 55.4547,308.805 48.4547,255.139 64,198.5C 83.1906,139.98 120.691,97.8134 176.5,72C 197.272,63.0789 218.939,57.9123 241.5,56.5 Z"/></g>
<g><path style="opacity:1" fill="#33536b" d="M 252.5,90.5 C 256.987,90.1606 260.487,91.8273 263,95.5C 263.667,100.833 263.667,106.167 263,111.5C 257.91,119.393 252.91,119.393 248,111.5C 247.333,106.167 247.333,100.833 248,95.5C 249.366,93.6383 250.866,91.9717 252.5,90.5 Z"/></g>
<g><path style="opacity:1" fill="#30516a" d="M 141.5,136.5 C 144.32,136.248 146.986,136.748 149.5,138C 154.365,141.849 158.031,146.515 160.5,152C 159.296,158.106 155.629,160.439 149.5,159C 143.68,155.187 139.346,150.187 136.5,144C 136.831,140.52 138.498,138.02 141.5,136.5 Z"/></g>
<g><path style="opacity:1" fill="#31526a" d="M 363.5,136.5 C 371.696,136.529 374.863,140.529 373,148.5C 369.5,152 366,155.5 362.5,159C 353.895,161.734 350.062,158.567 351,149.5C 354.697,144.638 358.864,140.304 363.5,136.5 Z"/></g>
<g><path style="opacity:1" fill="#2b4d66" d="M 262.5,147.5 C 262.5,176.833 262.5,206.167 262.5,235.5C 257.833,235.5 253.167,235.5 248.5,235.5C 248.5,205.833 248.5,176.167 248.5,146.5C 250.942,141.511 254.609,140.344 259.5,143C 261.141,144.129 262.141,145.629 262.5,147.5 Z"/></g>
<g><path style="opacity:1" fill="#406481" d="M 248.5,146.5 C 248.5,176.167 248.5,205.833 248.5,235.5C 253.167,235.5 257.833,235.5 262.5,235.5C 262.5,206.167 262.5,176.833 262.5,147.5C 263.332,176.997 263.832,206.664 264,236.5C 272.252,240.995 276.418,247.995 276.5,257.5C 275.267,262.633 272.934,267.3 269.5,271.5C 255.998,279.83 244.998,277.33 236.5,264C 219.995,263.831 203.662,263.331 187.5,262.5C 203.5,262.5 219.5,262.5 235.5,262.5C 235.5,257.833 235.5,253.167 235.5,248.5C 219.5,248.5 203.5,248.5 187.5,248.5C 203.662,247.669 219.995,247.169 236.5,247C 238.667,242.167 242.167,238.667 247,236.5C 247.168,206.331 247.668,176.331 248.5,146.5 Z"/></g>
<g><path style="opacity:1" fill="#33536c" d="M 96.5,246.5 C 102.29,246.096 107.956,246.596 113.5,248C 117.707,251.07 118.54,254.903 116,259.5C 114.829,260.893 113.329,261.727 111.5,262C 105.388,262.909 99.3877,262.576 93.5,261C 88.8631,254.986 89.8631,250.153 96.5,246.5 Z"/></g>
<g><path style="opacity:1" fill="#2b4d66" d="M 187.5,248.5 C 203.5,248.5 219.5,248.5 235.5,248.5C 235.5,253.167 235.5,257.833 235.5,262.5C 219.5,262.5 203.5,262.5 187.5,262.5C 183.997,261.351 182.331,258.851 182.5,255C 182.488,251.515 184.155,249.348 187.5,248.5 Z"/></g>
<g><path style="opacity:1" fill="#32536b" d="M 397.5,247.5 C 402.844,247.334 408.177,247.501 413.5,248C 419.45,250.477 420.95,254.643 418,260.5C 416.581,261.46 415.081,262.293 413.5,263C 407.719,263.903 402.053,263.57 396.5,262C 390.977,256.777 391.31,251.944 397.5,247.5 Z"/></g>
<g><path style="opacity:1" fill="#da4c56" d="M 276.5,257.5 C 297.473,268.32 318.473,279.154 339.5,290C 343.646,294.625 343.313,298.959 338.5,303C 335.833,303.667 333.167,303.667 330.5,303C 310.14,292.487 289.807,281.987 269.5,271.5C 272.934,267.3 275.267,262.633 276.5,257.5 Z"/></g>
<g><path style="opacity:1" fill="#2f5069" d="M 147.5,350.5 C 156.156,348.704 159.989,352.037 159,360.5C 155.869,364.633 152.369,368.466 148.5,372C 139.895,374.734 136.062,371.567 137,362.5C 140.336,358.332 143.836,354.332 147.5,350.5 Z"/></g>
<g><path style="opacity:1" fill="#2f5069" d="M 354.5,350.5 C 357.32,350.248 359.986,350.748 362.5,352C 365.667,355.167 368.833,358.333 372,361.5C 374.509,370.661 371.009,374.495 361.5,373C 358,369.5 354.5,366 351,362.5C 349.593,357.599 350.76,353.599 354.5,350.5 Z"/></g>
<g><path style="opacity:1" fill="#32536b" d="M 252.5,392.5 C 256.585,392.459 259.752,394.125 262,397.5C 262.87,403.917 262.536,410.251 261,416.5C 255.083,421.181 250.416,420.181 247,413.5C 246.333,408.5 246.333,403.5 247,398.5C 248.36,395.977 250.193,393.977 252.5,392.5 Z"/></g>
</svg>
